{"title":"SIGNS.DEWSTRR","uid":4915479,"size":1175522214,"categoryP":"video","categoryS":"movies","magnet":"?xt=urn:btih:55629b9a131383425b970ecc140f5a9b37fed586&amp;dn=SIGNS.DEWSTRR&amp;tr=udp%3A%2F%2Ftracker.openbittorrent.com%3A80&amp;tr=udp%3A%2F%2Fopen.demonii.com%3A1337&amp;tr=udp%3A%2F%2Ftracker.coppersurfer.tk%3A6969&amp;tr=udp%3A%2F%2Fexodus.desync.com%3A6969","seeders":0,"leechers":0,"uploader":"dewstrr505","files":15,"time":1243402033,"description":"SIGNS 2002 DVDRIP\n\nMystery | Sci-Fi | Thriller\n\nAfter the death of his wife in a freak accident, Reverend Graham Hess [Mel Gibson] questions his faith and even leaves the church. Six months later, he discovers a gigantic crop circle in his yard. Similar events happen all over the world. Graham's children think it's aliens, his brother [Joaquin Phoenix] thinks it's pranksters, and Graham doesn't know what to think. However, as more and more strange events occur, he realizes something big is coming, and it's probably not going to be friendly\n\n[IMG]http://i203.photobucket.com/albums/aa38/476352oop/MOVIES/SGNSCP.jpg[/IMG]\n &lt;a href=&quot;\nhttp://www.imdb.com/title/tt0286106/&quot; rel=&quot;nofollow&quot; target=&quot;_NEW&quot;&gt;\nhttp://www.imdb.com/title/tt0286106/&lt;/a&gt;\n\nFormat :      AVI\nFormat/Info :     Audio Video Interleave\nFile size :     1.09 GiB\nDuration :     1h 46mn\nOverall bit rate :     1 471 Kbps\nWriting application :     VirtualDubMod 1.5.4.1 (build 2178/release)\nWriting library :     VirtualDubMod build 2178/release\n\nVideo\nFormat :     MPEG-4 Visual\nFormat settings, BVOP :     Yes\nFormat settings, QPel :     No\nFormat settings, GMC :     No warppoints\nFormat settings, Matrix :     Default\nCodec ID :     DX50\nCodec ID/Hint :     DivX 5\nDuration :     1h 46mn\nBit rate :     1 017 Kbps\nWidth :     640 pixels\nHeight :     368 pixels\nDisplay aspect ratio :     16/9\nFrame rate :     23.976 fps\nResolution :     24 bits\nColorimetry :     4:2:0\nScan type :     Progressive\nBits/(Pixel*Frame) :     0.180\nStream size :     774 MiB (69%)\nWriting library :     DivX 2816\n\nAudio\nFormat :     AC-3\nFormat/Info :     Audio Coding 3\nCodec ID :     2000\nDuration :     1h 46mn\nBit rate mode :     Constant\nBit rate :     448 Kbps\nChannel(s) :     6 channels\nChannel positions :     Front: L C R, Surround: L R, LFE\nSampling rate :     48.0 KHz\nStream size :     341 MiB (30%)\nAlignment :     Split accross interleaves\nInterleave, duration :     96 ms (2.30 video frames)\nInterleave, preload duration :     96 ms\n\nGeneral\nComplete name : SIGNSSGNS 1.sfv\nFile size :     1.17 KiB\n\nGeneral\nComplete name :\nFile size :     47.0 Bytes\n[IMG]http://i203.photobucket.com/albums/aa38/476352oop/MOVIES/SGNS1.jpg[/IMG]\n[IMG]http://i203.photobucket.com/albums/aa38/476352oop/MOVIES/SGNS2.jpg[/IMG]\n[IMG]http://i203.photobucket.com/albums/aa38/476352oop/MOVIES/SGNS3.jpg[/IMG]\n[IMG]http://i203.photobucket.com/albums/aa38/476352oop/MOVIES/SGNS4.jpg[/IMG]\n[IMG]http://i203.photobucket.com/albums/aa38/476352oop/MOVIES/SGNS5.jpg[/IMG]\n[IMG]http://i203.photobucket.com/albums/aa38/476352oop/MOVIES/SGNS6.jpg[/IMG]\n[IMG]http://i203.photobucket.com/albums/aa38/476352oop/MOVIES/SGNS7.jpg[/IMG]\n[IMG]http://i203.photobucket.com/albums/aa38/476352oop/MOVIES/SGNS8.jpg[/IMG]\n[IMG]http://i203.photobucket.com/albums/aa38/476352oop/MOVIES/SGNS9.jpg[/IMG]\n[IMG]http://i203.photobucket.com/albums/aa38/476352oop/MOVIES/SGNS10.jpg[/IMG]\nburned with windows [with a couple of other movies on a disk] and played on my philips divx ultra certified dvd player\nbe sure to set your dvd player on the correct aspect ratio","torrent":{"xt":"urn:btih:55629b9a131383425b970ecc140f5a9b37fed586","amp;dn":"SIGNS.DEWSTRR","amp;tr":["udp%3A%2F%2Ftracker.openbittorrent.com%3A80","udp%3A%2F%2Fopen.demonii.com%3A1337","udp%3A%2F%2Ftracker.coppersurfer.tk%3A6969","udp%3A%2F%2Fexodus.desync.com%3A6969"],"infoHash":"55629b9a131383425b970ecc140f5a9b37fed586","infoHashBuffer":{"type":"Buffer","data":[85,98,155,154,19,19,131,66,91,151,14,204,20,15,90,155,55,254,213,134]},"announce":[],"urlList":[]}}